<svg width="7" height="11" viewBox="0 0 7 11" fill="none" xmlns="http://www.w3.org/2000/svg">
<path d="M5.71794 5.64595L0.408203 0.867188L4.538 5.64595L0.408201 10.4247L5.71794 5.64595Z" fill="black"/>
<path d="M0.408203 0.867188L0.742686 0.49554L0.0298966 1.19412L0.408203 0.867188ZM5.71794 5.64595L6.05242 6.0176L6.46536 5.64595L6.05242 5.2743L5.71794 5.64595ZM0.408201 10.4247L0.029895 10.0978L0.742684 10.7964L0.408201 10.4247ZM4.538 5.64595L4.9163 5.97288L4.9163 5.31902L4.538 5.64595ZM0.0737207 1.23883L5.38345 6.0176L6.05242 5.2743L0.742686 0.49554L0.0737207 1.23883ZM5.38345 5.2743L0.0737191 10.0531L0.742684 10.7964L6.05242 6.0176L5.38345 5.2743ZM0.786508 10.7516L4.9163 5.97288L4.15969 5.31902L0.029895 10.0978L0.786508 10.7516ZM4.9163 5.31902L0.78651 0.540256L0.0298966 1.19412L4.15969 5.97288L4.9163 5.31902Z" fill="black"/>
</svg>
