<svg width="33" height="18" viewBox="0 0 33 18" fill="none" xmlns="http://www.w3.org/2000/svg">
<path d="M16.5 17L32 1L16.5 13.4444L1 0.999999L16.5 17Z" fill="#B6CBC6"/>
<path d="M32 1L32.3591 1.3479L31.687 0.610112L32 1ZM16.5 17L16.1409 17.3479L16.5 17.7186L16.8591 17.3479L16.5 17ZM1 0.999999L1.31303 0.610111L0.640881 1.3479L1 0.999999ZM16.5 13.4444L16.187 13.8343L16.813 13.8343L16.5 13.4444ZM31.6409 0.652102L16.1409 16.6521L16.8591 17.3479L32.3591 1.3479L31.6409 0.652102ZM16.8591 16.6521L1.35912 0.652101L0.640881 1.3479L16.1409 17.3479L16.8591 16.6521ZM0.686972 1.38989L16.187 13.8343L16.813 13.0546L1.31303 0.610111L0.686972 1.38989ZM16.813 13.8343L32.313 1.38989L31.687 0.610112L16.187 13.0546L16.813 13.8343Z" fill="#B6CBC6"/>
</svg>
