<svg width="60" height="60" viewBox="0 0 60 60" fill="none" xmlns="http://www.w3.org/2000/svg">
<path d="M60 26.4844C60 12.2736 47.7866 0 33.5156 0C32.8685 0 32.3438 0.524766 32.3438 1.17188V26.4844C32.3438 27.1315 32.8685 27.6562 33.5156 27.6562H58.8281C59.4752 27.6562 60 27.1315 60 26.4844ZM34.6875 25.3125V2.37504C46.6635 3.01301 56.987 13.3365 57.625 25.3125H34.6875Z" fill="#636F6F"/>
<path d="M8.78906 52.6172C9.43627 52.6172 9.96094 52.0925 9.96094 51.4453C9.96094 50.7981 9.43627 50.2734 8.78906 50.2734C8.14185 50.2734 7.61719 50.7981 7.61719 51.4453C7.61719 52.0925 8.14185 52.6172 8.78906 52.6172Z" fill="#636F6F"/>
<path d="M6.14285 48.3076C6.67934 47.9456 6.8209 47.2172 6.45891 46.6807C3.76676 42.6901 2.34375 38.1376 2.34375 33.5156C2.34375 21.048 12.9471 10.065 25.3125 9.40629V33.5111C25.3118 33.6687 25.3426 33.8265 25.4072 33.9773C25.4377 34.0491 34.7808 56.0603 34.7916 56.0856C32.107 57.1275 29.318 57.6562 26.4844 57.6562C21.9702 57.6562 17.5088 56.2937 13.5821 53.7161C13.0409 53.3606 12.3145 53.5116 11.9593 54.0525C11.6041 54.5936 11.7548 55.3201 12.2958 55.6753C16.6057 58.5045 21.5119 60 26.4844 60C40.6932 60 52.9688 47.7784 52.9688 33.5156C52.9688 32.8685 52.444 32.3438 51.7969 32.3438H27.6562V8.20312C27.6562 7.55602 27.1315 7.03125 26.4844 7.03125C12.3161 7.03125 0 19.2075 0 33.5156C0 38.6065 1.56152 43.6121 4.51594 47.9914C4.87793 48.5279 5.60637 48.6695 6.14285 48.3076ZM46.6911 46.4062H33.2293L31.2396 41.7176H49.0939C48.4712 43.3493 47.667 44.919 46.6911 46.4062ZM36.9336 55.133L34.2241 48.7488H44.9547C42.7341 51.416 40.0057 53.5891 36.9336 55.133ZM49.8513 39.375H30.2447L28.255 34.6863H50.5945C50.512 36.2643 50.2622 37.8336 49.8513 39.375Z" fill="#636F6F"/>
</svg>
