<svg width="20" height="20" viewBox="0 0 20 20" fill="none" xmlns="http://www.w3.org/2000/svg">
<path fill-rule="evenodd" clip-rule="evenodd" d="M0 3C0 1.34315 1.34315 0 3 0H16.5C18.1569 0 19.5 1.34315 19.5 3V16.5C19.5 18.1569 18.1569 19.5 16.5 19.5H3C1.34315 19.5 0 18.1569 0 16.5V3ZM16.5 3.75C16.5 4.16421 16.1642 4.5 15.75 4.5C15.3358 4.5 15 4.16421 15 3.75C15 3.33579 15.3358 3 15.75 3C16.1642 3 16.5 3.33579 16.5 3.75ZM9.75 15C12.6495 15 15 12.6495 15 9.75C15 6.8505 12.6495 4.5 9.75 4.5C6.8505 4.5 4.5 6.8505 4.5 9.75C4.5 12.6495 6.8505 15 9.75 15Z" fill="#E5E5E5"/>
</svg>
