<svg width="82" height="19" viewBox="0 0 82 19" fill="none" xmlns="http://www.w3.org/2000/svg">
<path d="M62.6462 0.00292969C62.802 0.0836955 62.9533 0.174711 63.1144 0.242767C63.5724 0.435868 63.8602 0.78886 64.1398 1.18982C64.553 1.78265 64.6186 2.42919 64.6178 3.11221C64.6137 6.03618 64.6277 8.96015 64.6059 11.8841C64.6018 12.4413 64.3366 12.9345 63.9877 13.3851C63.6687 13.7971 63.2739 14.0865 62.8049 14.2813C62.6167 14.3596 62.4072 14.4297 62.2075 14.4301C58.6481 14.4391 55.0891 14.4477 51.5301 14.4194C51.1652 14.4166 50.7654 14.2353 50.4465 14.0345C49.8782 13.677 49.4412 13.1706 49.2858 12.4938C49.194 12.0944 49.1251 11.68 49.1235 11.272C49.1099 8.36199 49.1026 5.45155 49.1296 2.54152C49.1341 2.04995 49.2539 1.54076 49.636 1.15128C49.7971 0.987289 49.8983 0.754011 50.0779 0.621178C50.362 0.411269 50.6896 0.259987 50.9979 0.0820556C51.0315 0.0627866 51.0569 0.0299884 51.086 0.00333975C54.9386 0.00292978 58.7924 0.00292969 62.6462 0.00292969ZM56.8708 1.89047C55.1973 1.89047 53.5234 1.88473 51.8498 1.89334C51.2603 1.89621 50.9356 2.3025 50.9319 2.81129C50.9122 5.70779 50.9225 8.60429 50.9225 11.5008C50.9225 12.0264 51.4444 12.5462 51.9728 12.5462C54.8624 12.5462 57.7523 12.5553 60.6418 12.5376C61.1219 12.5348 61.6073 12.6496 62.0936 12.4392C62.367 12.3207 62.8151 11.9501 62.8139 11.5734C62.8037 8.69038 62.8094 5.80741 62.8049 2.92485C62.8045 2.77972 62.7684 2.62966 62.7225 2.49068C62.581 2.05856 62.1903 1.88514 61.8099 1.88719C60.1638 1.89539 58.5173 1.89047 56.8708 1.89047Z" fill="white"/>
<path d="M81.9961 13.1642C81.965 13.254 81.9473 13.3524 81.8998 13.4323C81.696 13.7763 81.4935 14.1301 81.0905 14.2769C80.8875 14.3507 80.6432 14.4724 80.4644 14.4179C80.1057 14.3084 79.74 14.142 79.4485 13.9095C79.0324 13.5775 78.6708 13.174 78.3034 12.7841C77.7209 12.1663 77.16 11.5276 76.5762 10.911C76.2667 10.5842 75.9161 10.296 75.6037 9.97128C75.0224 9.36738 74.4587 8.74626 73.8814 8.13826C73.332 7.55978 72.77 6.99278 72.2214 6.41307C71.8229 5.99161 71.4461 5.54924 71.0431 5.13189C70.7008 4.77725 70.3236 4.45624 69.9817 4.10161C69.4766 3.57724 68.9891 3.03525 68.4922 2.50269C68.45 2.45718 68.3897 2.42889 68.3377 2.39241C68.3266 2.45513 68.3061 2.51786 68.3061 2.581C68.3045 6.4471 68.3028 10.3132 68.3102 14.1797C68.3106 14.4003 68.2467 14.4487 68.04 14.4417C67.5829 14.4261 67.1245 14.4429 66.6674 14.4294C66.6092 14.4278 66.5042 14.3253 66.5042 14.2695C66.4965 10.0619 66.4821 5.85386 66.5137 1.64665C66.5182 1.02923 66.772 0.427786 67.4046 0.112102C67.4837 0.0727445 67.5657 0.0399462 67.6464 0.00386805C67.8924 0.00386805 68.1384 0.00386805 68.3844 0.00386805C68.4676 0.0460959 68.5627 0.0743845 68.6324 0.133011C69.0396 0.472474 69.4606 0.798817 69.8398 1.1678C70.4876 1.79753 71.1112 2.45226 71.7389 3.1029C72.0176 3.39193 72.2792 3.69819 72.5518 3.99296C73.1668 4.65754 73.7793 5.32458 74.4021 5.98218C74.8777 6.48441 75.3655 6.97515 75.8501 7.46918C76.445 8.07553 77.0432 8.67779 77.6368 9.28497C77.9148 9.5695 78.1841 9.86263 78.46 10.1492C79.0176 10.7293 79.5768 11.3074 80.1356 11.8867C80.1721 11.9248 80.2086 11.9634 80.2451 12.0015C80.2541 11.931 80.2713 11.8605 80.2713 11.7899C80.2734 7.86153 80.2738 3.9327 80.2742 0.00427811C80.7936 0.00427811 81.3131 0.0108377 81.8321 0.000178231C81.9732 -0.00269162 82.0002 0.0280569 82.0002 0.16827C81.9949 4.4997 81.9961 8.83195 81.9961 13.1642Z" fill="white"/>
<path d="M29.9289 0.00236304C30.0847 0.0831289 30.2384 0.166765 30.3958 0.243841C30.9395 0.509097 31.3117 0.945725 31.5651 1.47624C31.8172 2.00347 31.9095 2.56965 31.9021 3.15879C31.8882 4.28582 31.9087 5.41368 31.8943 6.54071C31.8845 7.31434 31.6971 8.04041 31.2711 8.7054C30.8776 9.32037 30.3458 9.74141 29.6706 9.99314C29.6099 10.0157 29.5357 10.0071 29.4681 10.0071C26.9946 10.0075 24.5217 10.0099 22.0483 10.0005C21.9244 10.0001 21.7695 9.92631 21.6826 9.83571C21.25 9.38309 20.8355 8.91367 20.4153 8.44998C20.3333 8.35979 20.2525 8.26836 20.171 8.17734C20.3099 8.15767 20.4485 8.12241 20.5875 8.12077C21.127 8.11421 21.667 8.12282 22.2065 8.11708C24.5659 8.09166 26.9262 8.07485 29.2848 8.01376C29.475 8.00884 29.744 7.72555 29.8243 7.514C29.9727 7.12329 30.0658 6.69158 30.0793 6.2734C30.1134 5.20869 30.0888 4.14192 30.0912 3.07639C30.0925 2.56596 29.9018 2.1691 29.4332 1.93254C29.3783 1.90467 29.3102 1.89155 29.2479 1.89155C26.1735 1.8895 23.099 1.89237 20.0242 1.88622C19.7044 1.8854 19.1829 2.29087 19.1837 2.71806C19.1907 6.54399 19.1862 10.3703 19.1928 14.1962C19.1932 14.3967 19.1419 14.4467 18.9459 14.4402C18.4888 14.4246 18.0305 14.4295 17.5729 14.4385C17.4249 14.4414 17.377 14.407 17.377 14.2491C17.3815 10.2727 17.37 6.29636 17.3987 2.31997C17.4011 1.96288 17.6299 1.59144 17.8091 1.25649C17.9517 0.989593 18.1571 0.744835 18.3765 0.533286C18.5409 0.374624 18.7705 0.283609 18.9726 0.164715C19.0693 0.107728 19.1698 0.0560704 19.2686 0.00195312C22.8223 0.0023631 26.3756 0.00236304 29.9289 0.00236304Z" fill="white"/>
<path d="M47.2303 0.00292969C47.2307 0.562961 47.2241 1.1234 47.2364 1.68343C47.2401 1.85808 47.1868 1.89457 47.02 1.89457C43.5085 1.88965 39.997 1.89703 36.486 1.88268C36.0592 1.88104 35.5791 2.32628 35.5811 2.78587C35.5959 5.72337 35.5934 8.66086 35.5828 11.5984C35.5815 11.9833 35.887 12.3396 36.2141 12.4146C36.5388 12.4888 36.8767 12.5401 37.2087 12.5413C40.4673 12.5503 43.7262 12.5491 46.9847 12.5413C47.1983 12.5409 47.243 12.6004 47.2368 12.8008C47.2221 13.2924 47.2368 13.7844 47.2249 14.2759C47.2237 14.3305 47.1274 14.4293 47.0753 14.4293C43.3793 14.4366 39.6838 14.442 35.9878 14.4231C35.7275 14.4219 35.4352 14.2862 35.2154 14.1316C34.8924 13.9045 34.5853 13.6331 34.336 13.3277C33.9609 12.8685 33.7793 12.3273 33.776 11.7152C33.7604 8.80928 33.7001 5.90335 33.7153 2.99783C33.7198 2.134 33.949 1.29723 34.6632 0.667916C34.9629 0.403889 35.2429 0.155032 35.6406 0.0709862C35.6541 0.0681163 35.6594 0.0262985 35.6685 0.00292969C39.5227 0.00292969 43.3765 0.00292969 47.2303 0.00292969Z" fill="white"/>
<path d="M8.85596 0.00488281C9.03758 0.142226 9.26634 0.246361 9.39139 0.423471C9.67796 0.829351 9.92108 1.2668 10.1683 1.69933C10.3569 2.02936 10.5311 2.36841 10.6996 2.70951C10.9128 3.1404 11.1071 3.58072 11.3224 4.01038C11.4733 4.3113 11.652 4.59788 11.8066 4.89675C12.0854 5.43424 12.3543 5.97664 12.6294 6.51576C12.9443 7.13401 13.2645 7.74939 13.576 8.36886C13.9471 9.10642 14.3115 9.84766 14.6797 10.5869C14.8831 10.9948 15.0876 11.4023 15.2922 11.8094C15.6341 12.4904 15.9769 13.1705 16.318 13.8519C16.3545 13.9253 16.3741 14.0073 16.4119 14.0799C16.5984 14.4386 16.5996 14.4382 16.1892 14.4382C15.7522 14.4382 15.3123 14.4087 14.8785 14.448C14.5702 14.4759 14.46 14.3222 14.3472 14.0934C14.0377 13.4661 13.7134 12.8462 13.3985 12.2214C13.03 11.4896 12.6663 10.7554 12.2981 10.0235C11.9866 9.40365 11.6684 8.78704 11.3581 8.16634C11.0924 7.63541 10.8374 7.09916 10.5713 6.56865C10.4057 6.23861 10.2232 5.91678 10.0568 5.58716C9.76201 5.00212 9.47707 4.41216 9.18148 3.82712C8.95845 3.38639 8.72558 2.95058 8.49722 2.51231C8.42548 2.37497 8.35496 2.23681 8.28526 2.09865C8.26641 2.06175 8.25165 2.0228 8.23525 1.98467C8.19835 2.01993 8.14751 2.04863 8.1266 2.09209C7.79329 2.78536 7.47146 3.48478 7.13076 4.17437C6.88191 4.67823 6.6023 5.16693 6.34934 5.66874C6.0845 6.19393 5.84261 6.731 5.57571 7.25536C5.34695 7.70429 5.08333 8.13559 4.86112 8.58738C4.67048 8.97522 4.52781 9.38602 4.34373 9.77714C4.18138 10.1215 3.98623 10.4503 3.81403 10.7902C3.46965 11.4704 3.13675 12.1558 2.78827 12.8339C2.52547 13.3452 2.24832 13.8491 1.96913 14.3517C1.94412 14.3972 1.86048 14.4341 1.8035 14.4345C1.20247 14.4398 0.601029 14.437 0 14.4366C0 14.3546 0 14.2726 0 14.1906C0.020089 14.1869 0.0532976 14.1897 0.0586273 14.1791C0.313634 13.6568 0.564131 13.132 0.820368 12.6105C1.05365 12.1349 1.29266 11.6626 1.53045 11.1891C1.83958 10.5729 2.15239 9.95917 2.45782 9.34134C2.68208 8.88749 2.89199 8.42667 3.11707 7.97323C3.27286 7.65919 3.4471 7.35458 3.60618 7.04217C3.84929 6.56455 4.08421 6.08241 4.32733 5.60479C4.49173 5.28131 4.67007 4.96522 4.83078 4.64011C5.04643 4.20307 5.24773 3.75906 5.46133 3.3212C5.74176 2.74682 6.01357 2.16711 6.31737 1.60503C6.53548 1.20079 6.77695 0.804342 7.05328 0.438641C7.19226 0.25497 7.4321 0.147146 7.62602 0.00529288C8.036 0.0048829 8.44598 0.00488281 8.85596 0.00488281Z" fill="white"/>
<path d="M31.5253 18.8236C31.2793 18.8236 31.03 18.7973 30.7886 18.8297C30.413 18.8798 30.1588 18.7297 29.921 18.4558C29.5824 18.0659 29.2122 17.7039 28.8547 17.3304C28.3385 16.7913 27.8195 16.2547 27.3054 15.7131C26.9758 15.3654 26.6588 15.0054 26.3255 14.6615C25.9016 14.2244 25.4642 13.8009 25.0378 13.3664C24.6528 12.974 24.2752 12.5743 23.8939 12.1782C23.5377 11.8084 23.1752 11.4448 22.8288 11.0664C22.7599 10.9909 22.7513 10.8602 22.7148 10.7548C22.8009 10.7372 22.887 10.7056 22.9735 10.7048C23.4516 10.6999 23.9333 10.7404 24.4068 10.6925C24.9337 10.6388 25.3203 10.804 25.6556 11.2037C25.9414 11.5444 26.2796 11.8408 26.5846 12.1659C27.2517 12.8772 27.9056 13.6009 28.5784 14.3068C28.8957 14.6397 29.2565 14.9304 29.5742 15.2629C29.9797 15.6868 30.3515 16.1436 30.7574 16.5671C31.0911 16.9151 31.463 17.2259 31.8012 17.5699C32.1415 17.9159 32.4629 18.2804 32.7831 18.6452C32.7966 18.6604 32.7138 18.8137 32.6724 18.8154C32.2903 18.8289 31.9078 18.8236 31.5253 18.8236Z" fill="white"/>
</svg>
