<svg width="24" height="15" viewBox="0 0 24 15" fill="none" xmlns="http://www.w3.org/2000/svg">
<path d="M23 7.5L15 1L21.2222 7.5L15 14L23 7.5Z" fill="white"/>
<path d="M15 1L15.1576 0.805972L14.8194 1.17288L15 1ZM23 7.5L23.1576 7.69403L23.3965 7.5L23.1576 7.30597L23 7.5ZM15 14L14.8194 13.8271L15.1576 14.194L15 14ZM21.2222 7.5L21.4028 7.67288L21.4028 7.32712L21.2222 7.5ZM14.8424 1.19403L22.8424 7.69403L23.1576 7.30597L15.1576 0.805972L14.8424 1.19403ZM22.8424 7.30597L14.8423 13.806L15.1576 14.194L23.1576 7.69403L22.8424 7.30597ZM15.1806 14.1729L21.4028 7.67288L21.0416 7.32712L14.8194 13.8271L15.1806 14.1729ZM21.4028 7.32712L15.1806 0.827124L14.8194 1.17288L21.0416 7.67288L21.4028 7.32712Z" fill="white"/>
<line x1="21" y1="7.5" x2="-4.37115e-08" y2="7.5" stroke="white"/>
</svg>
