<svg width="80" height="56" viewBox="0 0 80 56" fill="none" xmlns="http://www.w3.org/2000/svg">
<path d="M79.713 36.1313C79.4191 35.7151 78.9411 35.4673 78.4314 35.4673H68.2558L59.8472 13.7679L56.6658 5.33851C56.4353 4.72789 55.8511 4.32383 55.1983 4.32383H49.9277V1.69945C49.9277 0.833202 49.2252 0.130859 48.3591 0.130859C47.4928 0.130859 46.7905 0.833358 46.7905 1.69945V4.32367H44.3544V1.69945C44.3544 0.833202 43.6519 0.130859 42.7858 0.130859C41.9197 0.130859 41.2172 0.833358 41.2172 1.69945V4.32367H38.7813V1.69945C38.7813 0.833202 38.0788 0.130859 37.2127 0.130859C36.3466 0.130859 35.6441 0.833358 35.6441 1.69945V4.32367H30.3719C29.7192 4.32367 29.1345 4.72789 28.9042 5.33867L26.1044 12.7613H14.1003C13.4475 12.7613 12.8628 13.1655 12.6327 13.7765L9.83719 21.1901C9.8361 21.1926 9.83532 21.1954 9.83422 21.1979L9.82578 21.2205C9.82203 21.2299 9.81735 21.2385 9.81375 21.2482L7.34485 27.7968H1.5686C1.03938 27.7968 0.545629 28.0637 0.256098 28.5065C-0.0337459 28.9491 -0.0806209 29.5084 0.131098 29.9934L11.0236 54.9298C11.2733 55.5012 11.8375 55.8705 12.4611 55.8705H72.2933C72.957 55.8705 73.5489 55.4529 73.7713 54.8274L79.9092 37.5615C80.0802 37.0812 80.0069 36.5479 79.713 36.1313ZM64.8911 35.4674H48.0186L44.2103 30.9341H63.1345L64.8911 35.4674ZM31.4566 7.46117H54.1136L56.1139 12.7616H29.4572L31.4566 7.46117ZM15.1855 15.8987H57.3084L58.988 20.2329H13.5511L15.1855 15.8987ZM12.3666 23.3702H60.2036L61.9189 27.7969H10.6977L12.3666 23.3702ZM71.1864 52.7332H13.4878L3.96547 30.934H8.21235C8.28266 30.9435 8.35313 30.9501 8.42297 30.9501C8.49579 30.9501 8.56782 30.944 8.63907 30.934H40.113L46.0867 38.0449C46.3845 38.3998 46.8242 38.6045 47.2877 38.6045H67.1692C67.1733 38.6045 67.1773 38.6049 67.1814 38.6049C67.1847 38.6049 67.1881 38.6045 67.1914 38.6045H76.2088L71.1864 52.7332Z" fill="#B6CBC6"/>
</svg>
