<svg width="80" height="80" viewBox="0 0 80 80" fill="none" xmlns="http://www.w3.org/2000/svg">
<g clip-path="url(#clip0)">
<path d="M78.6645 23.3328H71.9983V7.92993C71.9595 5.36111 69.8516 3.30676 67.2826 3.33426C65.6214 3.32976 64.078 4.19186 63.2109 5.60876L54.6662 19.8451V7.92993C54.6274 5.36111 52.5195 3.30676 49.9505 3.33426C48.2893 3.32976 46.7459 4.19186 45.8788 5.60876L35.2409 23.3328H1.33666C0.600376 23.3328 0.00341797 23.9298 0.00341797 24.6661C0.00341797 25.4024 0.600376 25.9993 1.33666 25.9993H33.641L33.2571 26.6379C32.4355 28.0077 32.0013 29.5751 32.0012 31.1723V51.3309C32.0012 52.0671 32.5981 52.6641 33.3344 52.6641C34.0707 52.6641 34.6676 52.0671 34.6676 51.3309V45.9979H49.3333V51.3309C49.3333 52.0671 49.9302 52.6641 50.6665 52.6641C51.4028 52.6641 51.9997 52.0671 51.9997 51.3309V31.1723C52.0002 30.0584 52.3029 28.9653 52.8757 28.0098L54.0823 25.9993H78.6645C79.4008 25.9993 79.9977 25.4024 79.9977 24.6661C79.9977 23.9298 79.4008 23.3328 78.6645 23.3328ZM49.3333 43.3314H34.6676V36.6652H49.3333V43.3314ZM50.5892 26.6379C49.7676 28.0077 49.3334 29.5751 49.3333 31.1723V33.9988H34.6676V31.1723C34.6681 30.0584 34.9708 28.9653 35.5436 28.0098L36.7501 25.9993H50.9731L50.5892 26.6379ZM51.9997 23.3328H38.3514L48.1653 6.98067C48.5486 6.36488 49.2253 5.99357 49.9505 6.00073C51.0471 5.97307 51.9612 6.83368 51.9997 7.92993V23.3328ZM69.3318 23.3328H55.6835L65.4974 6.98067C65.8808 6.36488 66.5574 5.99357 67.2826 6.00073C68.3792 5.97307 69.2933 6.83368 69.3318 7.92993V23.3328Z" fill="#B6CBC6"/>
<path d="M79.6209 57.0408C79.1066 56.5119 78.2608 56.4999 77.7317 57.0142C75.667 59.0002 72.4022 59.0002 70.3375 57.0142C67.2341 54.0321 62.3297 54.0321 59.2263 57.0142C57.1603 58.9967 53.8982 58.9967 51.8322 57.0142C48.7282 54.0317 43.8236 54.0317 40.7196 57.0142C38.6549 59.0002 35.3901 59.0002 33.3255 57.0142C30.222 54.0321 25.3177 54.0321 22.2142 57.0142C20.1482 58.9967 16.8861 58.9967 14.8201 57.0142C11.7162 54.0317 6.81151 54.0317 3.70756 57.0142L0.403793 60.2286C-0.123003 60.7429 -0.133169 61.587 0.381128 62.1138C0.894758 62.6413 1.7387 62.6528 2.26633 62.1392L5.57143 58.93C7.63611 56.944 10.9009 56.944 12.9656 58.93C16.0705 61.9097 20.9732 61.9097 24.0781 58.93C26.1426 56.9449 29.4064 56.9449 31.4709 58.93C34.5754 61.911 39.479 61.911 42.5835 58.93C44.648 56.9449 47.9118 56.9449 49.9763 58.93C53.0812 61.9097 57.9839 61.9097 61.0888 58.93C63.1534 56.9449 66.4171 56.9449 68.4816 58.93C71.5861 61.911 76.4897 61.911 79.5942 58.93C80.1233 58.4158 80.1352 57.57 79.6209 57.0408Z" fill="#B6CBC6"/>
<path d="M79.6197 44.1105C79.1042 43.5832 78.2589 43.5737 77.7318 44.0891C75.6671 46.0752 72.4023 46.0752 70.3377 44.0891C67.2337 41.1083 62.3304 41.1083 59.2264 44.0891C58.328 44.9571 57.1516 45.4794 55.9053 45.5637C55.1707 45.6142 54.6163 46.2506 54.6668 46.9853C54.6668 46.9856 54.6668 46.9859 54.6668 46.9863C54.7291 47.7154 55.3585 48.2635 56.0893 48.2248C57.9665 48.0965 59.7377 47.3077 61.089 45.9983C63.1535 44.0131 66.4173 44.0131 68.4818 45.9983C71.5867 48.982 76.4934 48.982 79.5983 45.9983C80.1256 45.4829 80.1351 44.6376 79.6197 44.1105Z" fill="#B6CBC6"/>
<path d="M28.0457 41.8469C25.8801 41.7691 23.776 42.5764 22.2181 44.0828C20.1535 46.0688 16.8887 46.0688 14.824 44.0828C11.7184 41.1045 6.81707 41.1045 3.71146 44.0828L0.403691 47.3026C-0.124272 47.818 -0.134438 48.6638 0.381026 49.1918C0.896489 49.7197 1.74226 49.7299 2.27023 49.2144L5.57133 45.9973C7.63785 44.0161 10.8989 44.0161 12.9655 45.9973C16.0711 48.9756 20.9724 48.9756 24.078 45.9973C25.1159 44.9962 26.5167 44.4604 27.9577 44.5134C28.694 44.5378 29.3106 43.9605 29.335 43.2242C29.3593 42.4879 28.782 41.8713 28.0457 41.8469Z" fill="#B6CBC6"/>
<path d="M79.6204 71.1861C79.1061 70.6571 78.2604 70.6451 77.7312 71.1594C75.6665 73.1454 72.4018 73.1454 70.3371 71.1594C67.2331 68.1786 62.3298 68.1786 59.2259 71.1594C57.1598 73.1419 53.8978 73.1419 51.8317 71.1594C48.7261 68.1811 43.8248 68.1811 40.7192 71.1594C38.6545 73.1454 35.3897 73.1454 33.325 71.1594C30.2211 68.1786 25.3178 68.1786 22.2138 71.1594C20.1478 73.1419 16.8857 73.1419 14.8197 71.1594C11.7141 68.1811 6.81275 68.1811 3.70713 71.1594L0.403365 74.3739C-0.124597 74.8872 -0.13643 75.7313 0.376867 76.2592C0.378201 76.2606 0.379367 76.2619 0.3807 76.2631C0.893997 76.791 1.73794 76.8029 2.2659 76.2897L5.571 73.0753C7.63702 71.0928 10.8991 71.0928 12.9651 73.0753C16.0701 76.0549 20.9727 76.0549 24.0777 73.0753C26.1422 71.0901 29.406 71.0901 31.4705 73.0753C34.5749 76.0562 39.4786 76.0562 42.583 73.0753C44.6476 71.0901 47.9113 71.0901 49.9759 73.0753C53.0808 76.0549 57.9835 76.0549 61.0884 73.0753C63.1529 71.0901 66.4167 71.0901 68.4812 73.0753C71.5862 76.0549 76.4888 76.0549 79.5938 73.0753C80.1229 72.561 80.1347 71.7152 79.6204 71.1861Z" fill="#B6CBC6"/>
</g>
<defs>
<clipPath id="clip0">
<rect width="80" height="80" fill="white"/>
</clipPath>
</defs>
</svg>
