<svg width="74" height="74" viewBox="0 0 74 74" fill="none" xmlns="http://www.w3.org/2000/svg">
<path d="M61.667 37.0009C61.667 37.6816 62.2195 38.2342 62.9003 38.2342H67.8336C68.5143 38.2342 69.0668 37.6816 69.0668 37.0009C69.0668 36.3201 68.5143 35.7676 67.8336 35.7676H62.9003C62.2195 35.7676 61.667 36.3201 61.667 37.0009Z" fill="#B6CBC6"/>
<path d="M37 0C16.5983 0 0 16.5983 0 37C0 42.867 1.3333 48.4787 3.96276 53.6772C4.26989 54.2852 5.01104 54.5295 5.62039 54.2223C6.22843 53.9141 6.47139 53.1728 6.16426 52.5647C3.71113 47.714 2.46671 42.476 2.46671 37C2.46671 17.9586 17.9586 2.46671 37 2.46671C56.0414 2.46671 71.5333 17.9586 71.5333 37C71.5333 56.0414 56.0414 71.5333 37 71.5333C26.8707 71.5333 17.1569 66.9651 10.5499 59.2H59.2C59.8807 59.2 60.4333 58.6475 60.4333 57.9667C60.4333 57.286 59.8807 56.7334 59.2 56.7334H7.99691C7.49871 56.7334 7.05833 57.043 6.86711 57.5042C6.69816 57.9125 6.7697 58.3824 7.03361 58.7301C14.0747 68.2922 25.2759 74 37 74C57.4017 74 74 57.4017 74 37C74 16.5983 57.4017 0 37 0Z" fill="#B6CBC6"/>
<path d="M66.4631 27.8268L61.6975 29.1046C61.0401 29.2809 60.6492 29.9568 60.8255 30.6142C60.9735 31.1655 61.4717 31.5294 62.0169 31.5294C62.1217 31.5294 62.2302 31.5158 62.3363 31.4862L67.1006 30.2097C67.7593 30.0334 68.1489 29.3574 67.9726 28.7001C67.7963 28.0413 67.1193 27.6467 66.4631 27.8268Z" fill="#B6CBC6"/>
<path d="M51.9684 11.4666C47.4396 8.80639 42.2632 7.40039 36.9994 7.40039C20.6787 7.40039 7.39941 20.6796 7.39941 37.0004C7.39941 43.5815 9.19391 49.3867 12.5892 53.7873C12.8322 54.1018 13.1973 54.267 13.566 54.267C13.8299 54.267 14.0951 54.1831 14.3196 54.0104C14.8585 53.5936 14.9584 52.819 14.5427 52.2801C11.4398 48.2582 9.86613 43.1177 9.86613 37.0004C9.86613 22.0388 22.0378 9.86711 36.9994 9.86711C41.8242 9.86711 46.5688 11.1559 50.7202 13.5943C51.3073 13.9384 52.062 13.7436 52.4075 13.1552C52.7527 12.5681 52.5566 11.8121 51.9684 11.4666Z" fill="#B6CBC6"/>
<path d="M63.084 20.5157L58.8129 22.9811C58.2234 23.3214 58.0199 24.0763 58.3603 24.6659C58.5896 25.0618 59.004 25.2826 59.4308 25.2826C59.6392 25.2826 59.8514 25.2296 60.0462 25.1174L64.3173 22.652C64.9068 22.3116 65.1103 21.558 64.7699 20.9672C64.4284 20.3763 63.6748 20.1741 63.084 20.5157Z" fill="#B6CBC6"/>
<path d="M57.0946 15.1604L39.49 32.7651C38.7562 32.3309 37.9126 32.0658 36.9999 32.0658C34.2791 32.0658 32.0666 34.2785 32.0666 36.9991C32.0666 37.9118 32.3318 38.7553 32.7659 39.4892L28.7279 43.5271C28.2456 44.0094 28.2456 44.7889 28.7279 45.2711C28.9684 45.5116 29.2842 45.6324 29.5999 45.6324C29.9157 45.6324 30.2313 45.5116 30.4718 45.2711L34.5098 41.2332C35.2435 41.6673 36.0872 41.9324 36.9999 41.9324C39.7207 41.9324 41.9332 39.7198 41.9332 36.9991C41.9332 36.0864 41.668 35.2429 41.2339 34.509L58.8386 16.9044C59.3209 16.4221 59.3209 15.6426 58.8386 15.1604C58.3563 14.6783 57.5768 14.6783 57.0946 15.1604ZM36.9999 39.4658C35.6396 39.4658 34.5332 38.3596 34.5332 36.9991C34.5332 35.6388 35.6394 34.5324 36.9999 34.5324C38.3602 34.5324 39.4666 35.6386 39.4666 36.9991C39.4666 38.3594 38.3602 39.4658 36.9999 39.4658Z" fill="#B6CBC6"/>
</svg>
