<svg width="10" height="17" viewBox="0 0 10 17" fill="none" xmlns="http://www.w3.org/2000/svg">
<path d="M9 8.5L1 1L7.22222 8.5L0.999997 16L9 8.5Z" fill="#B6CBC6"/>
<path d="M1 1L1.34197 0.635231L0.615189 1.31925L1 1ZM9 8.5L9.34197 8.86477L9.73105 8.5L9.34197 8.13523L9 8.5ZM0.999997 16L0.615187 15.6807L1.34197 16.3648L0.999997 16ZM7.22222 8.5L7.60703 8.81925L7.60703 8.18075L7.22222 8.5ZM0.658029 1.36477L8.65803 8.86477L9.34197 8.13523L1.34197 0.635231L0.658029 1.36477ZM8.65803 8.13523L0.658027 15.6352L1.34197 16.3648L9.34197 8.86477L8.65803 8.13523ZM1.38481 16.3192L7.60703 8.81925L6.83741 8.18075L0.615187 15.6807L1.38481 16.3192ZM7.60703 8.18075L1.38481 0.68075L0.615189 1.31925L6.83741 8.81925L7.60703 8.18075Z" fill="#B6CBC6"/>
</svg>
