<svg width="74" height="74" viewBox="0 0 74 74" fill="none" xmlns="http://www.w3.org/2000/svg">
<path d="M72.7669 71.5334H67.8336V37.0001C67.8314 34.9576 66.1761 33.3022 64.1336 33.3001V25.9001C64.1314 23.8575 62.4761 22.2022 60.4335 22.2V14.8C60.4314 12.7575 58.7761 11.1022 56.7335 11.1V3.70001C56.7314 1.65749 55.0761 0.00216797 53.0335 0H20.9668C18.9242 0.00216797 17.2689 1.65749 17.2667 3.70001V11.1C15.2242 11.1022 13.5689 12.7575 13.5667 14.8V22.2C11.5242 22.2022 9.8689 23.8575 9.86673 25.9001V33.3001C7.82421 33.3022 6.16889 34.9576 6.16673 37.0001V71.5334H1.23329C0.55211 71.5334 0 72.0855 0 72.7667C0 73.4479 0.55211 74.0001 1.23329 74.0001H72.7667C73.4479 74.0001 74 73.448 74 72.7669C74 72.0857 73.448 71.5334 72.7669 71.5334ZM19.7333 3.70001C19.7338 3.01912 20.2857 2.46715 20.9666 2.46672H53.0334C53.7144 2.46715 54.2662 3.01912 54.2667 3.70001V11.1H35.6421C35.056 8.2289 32.5304 6.16673 29.6001 6.16673C26.6697 6.16673 24.1441 8.2289 23.5581 11.1H19.7335V3.70001H19.7333ZM33.0729 11.1H26.1274C26.6427 9.62291 28.0358 8.6333 29.6002 8.6333C31.1646 8.6333 32.5576 9.62291 33.0729 11.1ZM16.0333 14.8C16.0338 14.119 16.5857 13.5672 17.2666 13.5667H56.7334C57.4144 13.5672 57.9663 14.1191 57.9667 14.8V22.2H31.942C31.356 19.3289 28.8304 17.2667 25.9001 17.2667C22.9697 17.2667 20.4441 19.3289 19.8581 22.2H16.0335V14.8H16.0333ZM29.3729 22.2H22.4274C22.9426 20.7229 24.3358 19.7333 25.9002 19.7333C27.4646 19.7333 28.8576 20.7229 29.3729 22.2ZM12.3333 25.9001C12.3337 25.219 12.8857 24.6672 13.5666 24.6668H60.4334C61.1143 24.6672 61.6663 25.2192 61.6667 25.9001V33.3001H28.242C27.656 30.4289 25.1304 28.3668 22.2 28.3668C19.2697 28.3668 16.7441 30.4289 16.158 33.3001H12.3333V25.9001ZM25.6728 33.3001H18.7274C19.2426 31.823 20.6358 30.8333 22.2002 30.8333C23.7646 30.8333 25.1576 31.823 25.6728 33.3001ZM65.3668 71.5334H8.6333V37.0001C8.63374 36.3192 9.1857 35.7672 9.86659 35.7668H64.1334C64.8144 35.7672 65.3663 36.3192 65.3667 37.0001V71.5334H65.3668Z" fill="#B6CBC6"/>
<path d="M20.9674 55.5002C25.0543 55.5002 28.3674 52.1871 28.3674 48.1002C28.3674 44.0133 25.0543 40.7002 20.9674 40.7002C16.8805 40.7002 13.5674 44.0133 13.5674 48.1002C13.5719 52.1852 16.8822 55.4957 20.9674 55.5002ZM20.9674 43.1669C23.692 43.1669 25.9007 45.3756 25.9007 48.1002C25.9007 50.8248 23.692 53.0335 20.9674 53.0335C18.2428 53.0335 16.0341 50.8248 16.0341 48.1002C16.0367 45.3767 18.2438 43.1695 20.9674 43.1669Z" fill="#B6CBC6"/>
<path d="M59.2007 40.7002H33.3007C32.6195 40.7002 32.0674 41.2523 32.0674 41.9335C32.0674 42.6147 32.6195 43.1668 33.3007 43.1668H59.2007C59.8819 43.1668 60.434 42.6147 60.434 41.9335C60.434 41.2523 59.8819 40.7002 59.2007 40.7002Z" fill="#B6CBC6"/>
<path d="M59.2007 46.8672H33.3007C32.6195 46.8672 32.0674 47.4194 32.0674 48.1005C32.0674 48.7817 32.6195 49.3338 33.3007 49.3338H59.2007C59.8819 49.3338 60.434 48.7815 60.434 48.1005C60.434 47.4193 59.8819 46.8672 59.2007 46.8672Z" fill="#B6CBC6"/>
<path d="M59.2007 53.0337H33.3007C32.6195 53.0337 32.0674 53.5858 32.0674 54.267C32.0674 54.9482 32.6195 55.5004 33.3007 55.5004H59.2007C59.8819 55.5004 60.434 54.9483 60.434 54.2671C60.434 53.5859 59.8819 53.0337 59.2007 53.0337Z" fill="#B6CBC6"/>
<path d="M59.2008 59.2002H14.8007C14.1195 59.2002 13.5674 59.7523 13.5674 60.4335C13.5674 61.1147 14.1195 61.6668 14.8007 61.6668H59.2008C59.8819 61.6668 60.434 61.1147 60.434 60.4335C60.434 59.7523 59.8819 59.2002 59.2008 59.2002Z" fill="#B6CBC6"/>
<path d="M59.2008 65.3672H14.8007C14.1195 65.3672 13.5674 65.9194 13.5674 66.6005C13.5674 67.2815 14.1195 67.8338 14.8007 67.8338H59.2008C59.8819 67.8338 60.434 67.2817 60.434 66.6005C60.434 65.9193 59.8819 65.3672 59.2008 65.3672Z" fill="#B6CBC6"/>
</svg>
