<svg width="74" height="74" viewBox="0 0 74 74" fill="none" xmlns="http://www.w3.org/2000/svg">
<path d="M66.0508 9.53906C61.6676 9.53906 58.1016 13.1051 58.1016 17.4883V18.2109H24.5703V12.2852C24.5703 5.51112 19.0592 0 12.2852 0C5.51112 0 0 5.51112 0 12.2852V61.7148C0 68.4889 5.51112 74 12.2852 74H36.2772C37.0753 74 37.7225 73.3528 37.7225 72.5547C37.7225 71.7566 37.0753 71.1094 36.2772 71.1094H20.1849C22.9344 68.8002 24.5703 65.4082 24.5703 61.7148V21.1016H58.1016V66.0508C58.1016 66.8489 58.7488 67.4961 59.5469 67.4961C60.345 67.4961 60.9922 66.8489 60.9922 66.0508C60.9922 63.2615 63.2615 60.9922 66.0508 60.9922C68.8401 60.9922 71.1094 63.2615 71.1094 66.0508C71.1094 68.8401 68.8401 71.1094 66.0508 71.1094H34.2853C33.4872 71.1094 32.84 71.7566 32.84 72.5547C32.84 73.3528 33.4872 74 34.2853 74H66.0508C70.434 74 74 70.434 74 66.0508V17.4883C74 13.1051 70.434 9.53906 66.0508 9.53906ZM12.2852 71.1094C7.10501 71.1094 2.89062 66.895 2.89062 61.7148C2.89062 57.8799 5.23781 54.4764 8.67188 53.0422V59.5469C8.67188 62.7347 11.2653 65.3281 14.4531 65.3267H20.9576C19.5233 68.7623 16.12 71.1094 12.2852 71.1094ZM21.6492 62.4375H14.4531C12.8592 62.4375 11.5625 61.1408 11.5625 59.5469V52.3508C11.8029 52.3325 12.0439 52.3203 12.2852 52.3203C17.4653 52.3203 21.6797 56.5347 21.6797 61.7148C21.6797 61.9561 21.6675 62.1971 21.6492 62.4375ZM21.6797 53.8104C19.4243 51.1341 16.0508 49.4297 12.2852 49.4297C8.59282 49.4297 5.20038 51.0649 2.89062 53.8151V12.2852C2.89062 7.10501 7.10501 2.89062 12.2852 2.89062C17.4653 2.89062 21.6797 7.10501 21.6797 12.2852V53.8104ZM71.1094 59.9232C69.7339 58.7858 67.9709 58.1016 66.0508 58.1016C64.1307 58.1016 62.3677 58.7856 60.9922 59.9232V17.4883C60.9922 14.699 63.2615 12.4297 66.0508 12.4297C68.8401 12.4297 71.1094 14.699 71.1094 17.4883V59.9232Z" fill="#B6CBC6"/>
<path fill-rule="evenodd" clip-rule="evenodd" d="M48 30H34V57.4682L41 63.1391L48 57.4682L48 30ZM34 27C32.3431 27 31 28.3431 31 30V57.4682C31 58.3731 31.4084 59.2296 32.1116 59.7992L39.1116 65.4701C40.2125 66.3621 41.7875 66.3621 42.8884 65.4701L49.8884 59.7992C50.5916 59.2296 51 58.3731 51 57.4682V30C51 28.3431 49.6569 27 48 27H34Z" fill="#B6CBC6"/>
<path fill-rule="evenodd" clip-rule="evenodd" d="M41 24.5C41.8284 24.5 42.5 25.1716 42.5 26L42.5 34C42.5 34.8284 41.8284 35.5 41 35.5C40.1716 35.5 39.5 34.8284 39.5 34L39.5 26C39.5 25.1716 40.1716 24.5 41 24.5Z" fill="#B6CBC6"/>
<path fill-rule="evenodd" clip-rule="evenodd" d="M41 45.5C41.8284 45.5 42.5 46.1716 42.5 47L42.5 53C42.5 53.8284 41.8284 54.5 41 54.5C40.1716 54.5 39.5 53.8284 39.5 53L39.5 47C39.5 46.1716 40.1716 45.5 41 45.5Z" fill="#B6CBC6"/>
<path fill-rule="evenodd" clip-rule="evenodd" d="M39.5 40C39.5 39.1716 40.1716 38.5 41 38.5L48 38.5C48.8284 38.5 49.5 39.1716 49.5 40C49.5 40.8284 48.8284 41.5 48 41.5L41 41.5C40.1716 41.5 39.5 40.8284 39.5 40Z" fill="#B6CBC6"/>
<path fill-rule="evenodd" clip-rule="evenodd" d="M32.5 49C32.5 48.1716 33.1716 47.5 34 47.5L41 47.5C41.8284 47.5 42.5 48.1716 42.5 49C42.5 49.8284 41.8284 50.5 41 50.5L34 50.5C33.1716 50.5 32.5 49.8284 32.5 49Z" fill="#B6CBC6"/>
</svg>
