<svg width="94" height="94" viewBox="0 0 94 94" fill="none" xmlns="http://www.w3.org/2000/svg">
<path d="M49.8459 31.5782C48.5807 29.3867 45.4172 29.3841 44.1506 31.5782L23.2112 67.8462C21.946 70.0376 23.5251 72.7785 26.0587 72.7785H59.5769C60.3373 72.7785 60.9538 72.162 60.9538 71.4015C60.9538 70.6411 60.3373 70.0246 59.5769 70.0246H26.0587C25.6477 70.0246 25.389 69.5819 25.5961 69.2232L46.5353 32.9552C46.7404 32.5999 47.2533 32.5957 47.4608 32.9552L68.4 69.2232C68.6057 69.5794 68.3518 70.0246 67.9374 70.0246H57C56.2396 70.0246 55.623 70.6411 55.623 71.4015C55.623 72.162 56.2396 72.7785 57 72.7785H67.9374C70.4677 72.7785 72.0517 70.0404 70.7849 67.8462L49.8459 31.5782Z" fill="#B6CBC6"/>
<path d="M46.9986 57.3963C48.8591 57.3963 50.396 55.9411 50.4977 54.0835L50.9677 45.4928C51.092 43.2181 49.2766 41.3008 46.9986 41.3008C44.7204 41.3008 42.9052 43.2182 43.0295 45.4928L43.4995 54.0835C43.6012 55.9411 45.138 57.3963 46.9986 57.3963ZM46.9986 44.0547C47.6973 44.0547 48.2562 44.6396 48.2178 45.3424L47.7478 53.9331C47.726 54.331 47.397 54.6425 46.9986 54.6425C46.6002 54.6425 46.2712 54.331 46.2493 53.9331L45.7793 45.3424C45.7411 44.6435 46.296 44.0547 46.9986 44.0547Z" fill="#B6CBC6"/>
<path d="M47 67.5566C49.2444 67.5566 51.0702 65.7307 51.0702 63.4863C51.0702 61.2419 49.2444 59.416 47 59.416C44.7555 59.416 42.9297 61.2419 42.9297 63.4863C42.9297 65.7307 44.7555 67.5566 47 67.5566ZM47 62.1699C47.7259 62.1699 48.3163 62.7604 48.3163 63.4863C48.3163 64.2122 47.7259 64.8027 47 64.8027C46.274 64.8027 45.6836 64.2122 45.6836 63.4863C45.6836 62.7604 46.274 62.1699 47 62.1699Z" fill="#B6CBC6"/>
<path d="M87.4609 30.1924C78.9872 15.8941 63.6479 7.12109 47 7.12109C42.5141 7.12109 38.0764 7.75247 33.8101 8.99761C33.0799 9.21076 32.661 9.97524 32.8739 10.7052C33.0873 11.4354 33.8521 11.8545 34.5815 11.6414C38.5973 10.4695 42.7753 9.87518 47 9.87518C54.242 9.87518 61.3791 11.6511 67.7305 15.0222L61.9394 25.0529C57.3382 22.682 52.2023 21.4344 47.0002 21.4344C41.7981 21.4344 36.6622 22.682 32.061 25.0529L26.2697 15.022C27.0771 14.5932 27.8996 14.1882 28.7265 13.8127C29.4189 13.4984 29.7255 12.6821 29.4112 11.9896C29.0969 11.2971 28.2806 10.9905 27.5881 11.305C24.0253 12.9227 20.6747 14.9839 17.6074 17.4444L16.5827 13.6203C16.1355 11.9518 14.0427 11.3898 12.8204 12.6122L5.49147 19.9411C4.27021 21.1625 4.82962 23.2559 6.49977 23.7035L10.3238 24.7281C3.65094 33.0473 0 43.4003 0 54.1211C0 54.8815 0.616508 55.498 1.37695 55.498H15.6901C16.4506 55.498 17.0671 54.8815 17.0671 54.1211C17.0671 37.8512 30.2959 24.1882 47 24.1882C63.7197 24.1882 76.9329 37.8617 76.9329 54.1211C76.9329 54.8815 77.5494 55.498 78.3099 55.498H92.623C93.3835 55.498 94 54.8815 94 54.1211C94 45.6851 91.7389 37.4108 87.4609 30.1924ZM14.1488 15.1783C14.5887 16.82 15.9343 21.8418 16.3786 23.4997C14.7169 23.0545 9.70697 21.712 8.0572 21.2699L14.1488 15.1783ZM14.3425 52.7441H2.7752C3.08529 42.7377 6.77039 33.1461 13.2468 25.5115L16.5106 26.386C18.1727 26.8312 19.7143 25.3094 19.2649 23.6317L18.3904 20.3679C20.1154 18.9045 21.9545 17.5712 23.8788 16.3891L29.6684 26.417C20.5509 32.1401 14.798 42.0228 14.3425 52.7441ZM79.6575 52.7441C79.202 42.0228 73.4489 32.14 64.3314 26.4172L70.1211 16.3893C82.7947 24.1742 90.7594 37.8943 91.2246 52.7443H79.6575V52.7441Z" fill="#B6CBC6"/>
<path d="M8.36064 59.3848C7.89376 59.3848 7.4267 59.4334 6.97286 59.5291C6.22875 59.686 5.75288 60.4164 5.90985 61.1607C6.06682 61.9046 6.79679 62.3808 7.54145 62.2237C7.80876 62.1673 8.08452 62.1387 8.36064 62.1387C10.5346 62.1387 12.3033 63.9072 12.3033 66.0813C12.3033 68.2555 10.5348 70.024 8.36064 70.024C6.18653 70.024 4.41797 68.2555 4.41797 66.0813C4.41797 65.8814 4.43302 65.6806 4.46277 65.4845C4.57659 64.7325 4.05923 64.0308 3.30741 63.917C2.55541 63.8026 1.85371 64.3203 1.73989 65.0723C1.68958 65.4044 1.66406 65.7439 1.66406 66.0813C1.66406 69.7738 4.66802 72.7779 8.36064 72.7779C12.0533 72.7779 15.0572 69.774 15.0572 66.0813C15.0572 62.3887 12.0531 59.3848 8.36064 59.3848Z" fill="#B6CBC6"/>
<path d="M85.6419 59.3848C81.9495 59.3848 78.9453 62.3887 78.9453 66.0813C78.9453 69.774 81.9493 72.7779 85.6419 72.7779C89.3345 72.7779 92.3385 69.774 92.3385 66.0813C92.3385 62.3887 89.3343 59.3848 85.6419 59.3848ZM85.6419 70.024C83.468 70.024 81.6992 68.2555 81.6992 66.0813C81.6992 63.9072 83.4678 62.1387 85.6419 62.1387C87.816 62.1387 89.5846 63.9072 89.5846 66.0813C89.5846 68.2555 87.8158 70.024 85.6419 70.024Z" fill="#B6CBC6"/>
</svg>
