<svg width="100" height="72" viewBox="0 0 100 72" fill="none" xmlns="http://www.w3.org/2000/svg">
<path d="M1.66707 50.0357H86.674C87.2179 50.0351 87.7273 49.7692 88.0392 49.3236L99.7067 32.6556C100.234 31.9015 100.05 30.8618 99.2957 30.3348C99.0163 30.1388 98.6832 30.0343 98.3414 30.0336H85.6973L72.8512 17.1875C72.5385 16.8755 72.1146 16.6998 71.6724 16.6991H60.6954L57.3613 13.3657H60.005V10.0322H41.6699V13.3657H45.6402L47.3073 16.6991H34.1695L29.6695 0.698917C29.3541 0.279098 28.8604 0.0322266 28.3361 0.0322266H18.335C17.414 0.0322266 16.668 0.77827 16.668 1.69862V16.6991H10.0011C9.23602 16.6991 8.57001 17.2193 8.38417 17.9606L5.36744 30.0336H1.66707C0.746043 30.0336 0 30.7804 0 31.7007V48.3687C0 49.289 0.746043 50.0357 1.66707 50.0357ZM52.6476 13.3657L55.9818 16.6998H51.0341L49.3677 13.3657H52.6476ZM20.0014 3.36568H27.5026L30.0025 16.6998H20.0014V3.36568ZM11.3026 20.0333H70.9827L80.9837 30.0336H8.80264L11.3026 20.0333ZM3.33346 33.3678H95.1395L90.4727 40.0347H3.33346V33.3678ZM3.33346 43.3681H88.1396L85.8059 46.7023H3.33346V43.3681Z" fill="#B6CBC6"/>
<path d="M13.334 23.3662H16.6674V26.6997H13.334V23.3662Z" fill="#B6CBC6"/>
<path d="M0 69H85V72H0V69Z" fill="#B6CBC6"/>
<path d="M0 58H100V61H0V58Z" fill="#B6CBC6"/>
<path d="M20.002 23.3662H23.3361V26.6997H20.002V23.3662Z" fill="#B6CBC6"/>
<path d="M26.6689 23.3662H30.0024V26.6997H26.6689V23.3662Z" fill="#B6CBC6"/>
<path d="M33.3359 23.3662H36.6701V26.6997H33.3359V23.3662Z" fill="#B6CBC6"/>
<path d="M40.0029 23.3662H43.3364V26.6997H40.0029V23.3662Z" fill="#B6CBC6"/>
<path d="M46.6699 23.3662H50.004V26.6997H46.6699V23.3662Z" fill="#B6CBC6"/>
<path d="M53.3379 23.3662H56.6713V26.6997H53.3379V23.3662Z" fill="#B6CBC6"/>
<path d="M60.0049 23.3662H63.339V26.6997H60.0049V23.3662Z" fill="#B6CBC6"/>
<path d="M66.6729 23.3662H70.0063V26.6997H66.6729V23.3662Z" fill="#B6CBC6"/>
</svg>
