<svg width="74" height="74" viewBox="0 0 74 74" fill="none" xmlns="http://www.w3.org/2000/svg">
<g clip-path="url(#clip0)">
<path d="M29.6047 22.2276H44.3968C44.7237 22.2277 45.0373 22.0979 45.2686 21.8666C45.4997 21.6355 45.6296 21.3219 45.6296 20.9948V18.1774C45.5978 15.0565 43.807 12.221 41.0024 10.8513C42.966 9.17515 43.6769 6.45306 42.7837 4.03085C41.8904 1.60879 39.5824 0 37.0008 0C34.4192 0 32.1111 1.60893 31.218 4.031C30.3248 6.4532 31.0357 9.1753 32.9992 10.8514C30.1948 12.221 28.4039 15.0566 28.3721 18.1775V20.995C28.3719 21.3219 28.5018 21.6355 28.7331 21.8668C28.9642 22.0977 29.2778 22.2276 29.6047 22.2276ZM37.0008 2.50469C39.0431 2.50469 40.6988 4.16043 40.6988 6.20272C40.6988 8.24501 39.0431 9.90075 37.0008 9.90075C34.9593 9.89858 33.3049 8.24415 33.3027 6.20272C33.3027 4.16043 34.9585 2.50469 37.0008 2.50469ZM30.8375 18.1774C30.9412 14.8736 33.6967 12.2756 37.0009 12.3661C40.305 12.2756 43.0606 14.8736 43.1643 18.1774V19.7622H30.8375V18.1774Z" fill="#B6CBC6"/>
<path d="M14.8126 46.8811H29.6047C29.9316 46.8812 30.2452 46.7513 30.4765 46.5201C30.7076 46.2889 30.8374 45.9753 30.8374 45.6483V42.8309C30.8057 39.7099 29.0149 36.8744 26.2103 35.5047C28.1739 33.8286 28.8847 31.1065 27.9916 28.6843C27.0984 26.2623 24.7903 24.6533 22.2088 24.6533C19.6272 24.6533 17.3191 26.2623 16.426 28.6843C15.5328 31.1065 16.2437 33.8286 18.2072 35.5047C15.4028 36.8744 13.6119 39.7099 13.5801 42.8309V45.6483C13.5799 45.9752 13.7098 46.2888 13.9411 46.5201C14.1721 46.7513 14.4857 46.8812 14.8126 46.8811ZM22.2086 27.1583C24.2509 27.1583 25.9066 28.8139 25.9066 30.8563C25.9066 32.8986 24.2511 34.5543 22.2086 34.5543C20.1672 34.5522 18.5128 32.8978 18.5106 30.8563C18.5106 28.814 20.1663 27.1583 22.2086 27.1583ZM16.0453 42.831C16.1491 39.5272 18.9045 36.9292 22.2088 37.0198C25.5129 36.9292 28.2683 39.5272 28.3722 42.831V44.4158H16.0453V42.831Z" fill="#B6CBC6"/>
<path d="M47.7912 35.5048C44.9868 36.8745 43.1958 39.71 43.1641 42.8309V45.6483C43.1639 45.9752 43.2938 46.2889 43.5251 46.5201C43.7562 46.7513 44.0698 46.8811 44.3968 46.8811H59.1889C59.5158 46.8813 59.8295 46.7514 60.0607 46.5201C60.2919 46.289 60.4217 45.9754 60.4217 45.6483V42.8309C60.3899 39.71 58.5991 36.8745 55.7946 35.5048C57.1602 34.346 57.9501 32.6473 57.9563 30.8562C57.9745 28.0014 56.0299 25.5078 53.2566 24.8297C50.4834 24.1518 47.6076 25.4669 46.3067 28.008C45.0057 30.5491 45.6198 33.6513 47.7912 35.5048ZM57.9562 42.8309V44.4157H45.6295V42.8309C45.8214 39.5675 48.5239 37.0195 51.7929 37.0195C55.0619 37.0195 57.7642 39.5675 57.9562 42.8309ZM51.7927 27.1582C53.835 27.1582 55.4908 28.8138 55.4908 30.8562C55.4908 32.8985 53.8352 34.5543 51.7927 34.5543C49.7513 34.5521 48.0969 32.8977 48.0947 30.8562C48.0947 28.8139 49.7505 27.1582 51.7927 27.1582Z" fill="#B6CBC6"/>
<path d="M41.0024 62.6239C42.966 60.9478 43.6769 58.2257 42.7837 55.8035C41.8905 53.3812 39.5824 51.7725 37.0008 51.7725C34.4192 51.7725 32.1111 53.3812 31.218 55.8035C30.3248 58.2257 31.0357 60.9478 32.9992 62.6239C30.1948 63.9936 28.4039 66.8291 28.3721 69.95V72.7675C28.3719 73.0944 28.5018 73.408 28.7331 73.6392C28.9642 73.8704 29.2778 74.0002 29.6048 74.0002H44.397C44.7239 74.0004 45.0375 73.8705 45.2688 73.6392C45.4999 73.4081 45.6297 73.0945 45.6297 72.7675V69.95C45.5978 66.8291 43.8069 63.9934 41.0024 62.6239ZM35.5857 54.5587C36.9675 53.9864 38.5581 54.3027 39.6158 55.3603C40.6735 56.418 40.9899 58.0086 40.4174 59.3904C39.8451 60.7723 38.4966 61.6732 37.0009 61.6732C34.9595 61.6711 33.305 60.0166 33.3029 57.9752C33.3027 56.4795 34.2038 55.131 35.5857 54.5587ZM43.1642 71.5347H30.8375V69.9499C30.9412 66.6461 33.6967 64.0481 37.0009 64.1386C40.305 64.0481 43.0606 66.6461 43.1643 69.9499V71.5347H43.1642Z" fill="#B6CBC6"/>
<path d="M12.6507 62.6239C14.6143 60.9478 15.3251 58.2257 14.432 55.8035C13.5388 53.3812 11.2307 51.7725 8.64919 51.7725C6.06765 51.7725 3.75956 53.3812 2.8664 55.8035C1.97324 58.2257 2.6841 60.9478 4.64767 62.6239C1.84323 63.9936 0.0522879 66.8291 0.0205079 69.95V72.7675C0.0203635 73.0944 0.150228 73.408 0.381499 73.6392C0.612626 73.8704 0.926236 74.0002 1.25328 74.0002H16.0454C16.3723 74.0004 16.6859 73.8705 16.9172 73.6392C17.1483 73.4081 17.2782 73.0945 17.2782 72.7675V69.95C17.2461 66.8291 15.4553 63.9934 12.6507 62.6239ZM7.23397 54.5587C8.61582 53.9864 10.2064 54.3027 11.2641 55.3603C12.3218 56.418 12.6382 58.0086 12.0657 59.3904C11.4934 60.7723 10.1449 61.6732 8.64919 61.6732C6.60776 61.6711 4.95333 60.0166 4.95116 57.9752C4.95116 56.4795 5.85213 55.131 7.23397 54.5587ZM14.8125 71.5347H2.48576V69.9499C2.58948 66.6461 5.34495 64.0481 8.64919 64.1386C11.9533 64.0481 14.7089 66.6461 14.8126 69.9499V71.5347H14.8125Z" fill="#B6CBC6"/>
<path d="M69.3539 62.6239C71.3174 60.9478 72.0283 58.2257 71.1351 55.8035C70.242 53.3812 67.9339 51.7725 65.3523 51.7725C62.7708 51.7725 60.4627 53.3812 59.5695 55.8035C58.6764 58.2257 59.3872 60.9478 61.3508 62.6239C58.5464 63.9936 56.7554 66.8291 56.7236 69.95V72.7675C56.7235 73.0944 56.8534 73.408 57.0846 73.6392C57.3158 73.8704 57.6294 74.0002 57.9564 74.0002H72.7485C73.0754 74.0004 73.3891 73.8705 73.6203 73.6392C73.8515 73.4081 73.9813 73.0945 73.9813 72.7675V69.95C73.9492 66.8291 72.1583 63.9934 69.3539 62.6239ZM63.937 54.5587C65.3188 53.9864 66.9094 54.3027 67.9671 55.3603C69.0248 56.418 69.3411 58.0086 68.7687 59.3904C68.1963 60.7723 66.8479 61.6732 65.3522 61.6732C63.3108 61.6711 61.6563 60.0166 61.6542 57.9752C61.6542 56.4795 62.5551 55.131 63.937 54.5587ZM71.5156 71.5347H59.1889V69.9499C59.3809 66.6865 62.0833 64.1385 65.3523 64.1385C68.6213 64.1385 71.3236 66.6865 71.5158 69.9499V71.5347H71.5156Z" fill="#B6CBC6"/>
<path d="M37.8719 25.0539C37.6408 24.8227 37.3272 24.6929 37.0001 24.6929C36.6732 24.6927 36.3596 24.8226 36.1284 25.0539C35.8972 25.285 35.7674 25.5986 35.7674 25.9256V33.3217H33.302C32.6212 33.3217 32.0693 33.8735 32.0693 34.5543C32.0693 35.2351 32.6212 35.787 33.302 35.787H40.698C41.3788 35.787 41.9307 35.2351 41.9307 34.5543C41.9307 33.8735 41.3788 33.3217 40.698 33.3217H38.2329V25.9256C38.2329 25.5986 38.1031 25.2851 37.8719 25.0539Z" fill="#B6CBC6"/>
<path d="M25.9071 60.4408H23.4419V53.0448C23.442 52.7179 23.3122 52.4043 23.0809 52.173C22.8498 51.9419 22.5362 51.812 22.2091 51.812C21.8822 51.8119 21.5686 51.9417 21.3373 52.173C21.1062 52.4041 20.9763 52.7177 20.9763 53.0448V60.4408H18.5109C17.8301 60.4408 17.2783 60.9927 17.2783 61.6735C17.2783 62.3543 17.8301 62.9061 18.5109 62.9061H25.907C26.5878 62.9061 27.1396 62.3543 27.1396 61.6735C27.1396 60.9927 26.588 60.4408 25.9071 60.4408Z" fill="#B6CBC6"/>
<path d="M54.2576 60.4407H51.7922V53.0446C51.7922 52.3638 51.2404 51.812 50.5596 51.812C49.8787 51.812 49.3269 52.3638 49.3269 53.0446V60.4407H46.8615C46.1807 60.4407 45.6289 60.9925 45.6289 61.6733C45.6289 62.3541 46.1807 62.906 46.8615 62.906H54.2576C54.9384 62.906 55.4902 62.3541 55.4902 61.6733C55.4902 60.9925 54.9384 60.4407 54.2576 60.4407Z" fill="#B6CBC6"/>
</g>
<defs>
<clipPath id="clip0">
<rect width="74" height="74" fill="white"/>
</clipPath>
</defs>
</svg>
