<svg width="62" height="44" viewBox="0 0 62 44" fill="none" xmlns="http://www.w3.org/2000/svg">
<path d="M8.31096 39.495L2.67819 28.2617V38.3363C2.67819 38.5938 2.71038 38.7869 2.80694 38.9157C2.9035 39.0444 3.06444 39.1088 3.32193 39.1732V39.495H0.650391V39.1732C0.907889 39.1088 1.06883 39.0122 1.16539 38.9157C1.26195 38.8191 1.29414 38.626 1.29414 38.3363V27.2961C1.29414 27.0064 1.26195 26.8133 1.16539 26.7167C1.06883 26.588 0.907889 26.5236 0.650391 26.4592V26.1373H4.09443V26.4592C3.77256 26.5558 3.61162 26.7167 3.61162 26.8776C3.61162 26.942 3.70818 27.1995 3.93349 27.6179L8.37534 36.4373L12.8494 27.5536C13.0103 27.2317 13.0747 27.0064 13.0747 26.8776C13.0747 26.7167 12.9137 26.5558 12.5919 26.4592V26.1373H16.1003V26.4592C15.8428 26.5236 15.6818 26.6201 15.6175 26.7167C15.5209 26.8133 15.4887 27.0064 15.4887 27.2961V38.3685C15.4887 38.626 15.5209 38.8191 15.6175 38.9479C15.714 39.0766 15.875 39.141 16.1003 39.2054V39.5272H13.3644V39.2054C13.6219 39.141 13.7828 39.0444 13.8794 38.9479C13.9759 38.8513 14.0081 38.6582 14.0081 38.3685V28.2617L8.31096 39.495Z" fill="white"/>
<path d="M25.3707 33.5713V38.335C25.3707 38.5925 25.4029 38.7857 25.4995 38.9144C25.596 39.0432 25.757 39.1075 26.0145 39.1719V39.4938H23.2142V39.1719C23.4717 39.1075 23.6326 39.011 23.697 38.9144C23.7935 38.8179 23.8257 38.6247 23.8257 38.335V33.5713L19.5126 27.9064C19.0298 27.2948 18.708 26.9086 18.547 26.7476C18.3539 26.5867 18.1286 26.4901 17.8711 26.4258V26.1039H21.2508V26.4258C20.9289 26.4901 20.8001 26.6189 20.8001 26.812C20.8001 27.0373 20.9611 27.3592 21.2508 27.7776L24.6304 32.4126L28.0101 27.6489C28.2998 27.2304 28.4285 26.9729 28.4285 26.812C28.4285 26.6511 28.2998 26.5223 28.0101 26.4579V26.1361H31.1644V26.4579C30.8426 26.5223 30.5851 26.6511 30.3276 26.8764C29.8448 27.3592 29.5551 27.7132 29.4263 27.9386L25.3707 33.5713Z" fill="white"/>
<path d="M44.103 32.5414C45.648 33.0564 46.4205 34.1507 46.4205 35.7601C46.4205 36.5648 46.1952 37.2407 45.7768 37.8523C45.3584 38.4316 44.8112 38.8501 44.103 39.1076C43.3949 39.3651 42.3971 39.4616 41.1096 39.4616H33.3203V39.1398C33.5778 39.0754 33.7387 38.9788 33.8353 38.8823C33.9319 38.7857 33.9641 38.5926 33.9641 38.3029V27.2949C33.9641 27.0052 33.9319 26.812 33.8353 26.7155C33.7387 26.5867 33.5778 26.5224 33.3203 26.458V26.1361H41.3028C42.0753 26.1361 42.719 26.2005 43.234 26.3292C43.749 26.458 44.1996 26.6511 44.5859 26.9408C45.4871 27.5845 45.9377 28.518 45.9377 29.7089C46.0021 30.9964 45.3584 31.9298 44.103 32.5414ZM35.5412 31.8976H40.6912C41.4315 31.8976 41.9787 31.8654 42.3327 31.8333C42.6868 31.8011 43.0409 31.7045 43.3306 31.5758C43.7168 31.4148 44.0065 31.1895 44.1996 30.8355C44.3927 30.5136 44.5215 30.1273 44.5215 29.7089C44.5215 29.1295 44.3284 28.6467 43.9743 28.2283C43.6846 27.9064 43.2984 27.6811 42.8156 27.5523C42.3327 27.4236 41.5924 27.3592 40.5946 27.3592H35.5412V31.8976ZM35.5412 38.2063H40.9165C41.689 38.2063 42.2684 38.1741 42.6224 38.142C43.0087 38.1098 43.3306 38.0132 43.6524 37.8523C44.0387 37.6591 44.3605 37.4017 44.5537 37.0154C44.779 36.6613 44.8755 36.2107 44.8755 35.7279C44.8755 35.0842 44.6824 34.537 44.2962 34.0864C43.9743 33.7001 43.5559 33.4748 43.0731 33.3139C42.5902 33.1851 41.8178 33.1207 40.7878 33.1207H35.509V38.2063H35.5412Z" fill="white"/>
<path d="M57.8158 35.76H50.6702L49.4793 38.3028C49.3827 38.5281 49.3183 38.7212 49.3183 38.8178C49.3183 39.0109 49.5115 39.1397 49.8977 39.2041V39.5259H46.9043V39.2041C47.1618 39.1719 47.3871 39.0753 47.5159 38.9144C47.6446 38.7534 47.8377 38.4316 48.063 37.9488L52.9555 27.3913C53.0843 27.1338 53.1164 26.9729 53.1164 26.8763C53.1164 26.7154 52.9555 26.5866 52.6336 26.4901V26.1682H55.8845V26.4901C55.5627 26.5866 55.4017 26.7476 55.4017 26.9085C55.4017 26.9729 55.4661 27.1338 55.5627 27.3913L60.262 37.5625C60.6161 38.3028 60.8414 38.7534 60.9379 38.8822C61.0345 39.0109 61.292 39.1397 61.6782 39.2041V39.5259H58.4917V39.2041C58.878 39.1397 59.0711 39.0109 59.0711 38.7856C59.0711 38.6891 59.0067 38.4637 58.8458 38.1741L57.8158 35.76ZM57.2364 34.4725L54.243 27.8741L51.2496 34.4725H57.2364Z" fill="white"/>
<path d="M30.9074 6.66277C30.9074 6.69495 30.9074 6.69495 30.9396 6.72714C33.8365 16.8339 25.339 21.823 25.339 21.823C25.339 21.823 31.3902 10.2356 24.1481 1.80249C22.0881 0.611558 20.6719 0 20.6719 0C20.6719 0 29.974 7.20995 24.0515 23.5933C31.5834 18.1536 38.8255 22.4667 38.8255 22.4667C38.8577 15.6752 35.0596 10.3965 30.9074 6.66277Z" fill="#8F8F8F"/>
<path d="M0.488281 42.1344V41.877H2.12983V42.1344H1.4539V43.9691H1.13203V42.1344H0.488281Z" fill="white"/>
<path d="M3.70741 43.9679V43.0345H2.74179V43.9679H2.41992V41.8757H2.74179V42.777H3.70741V41.8757H4.02929V43.9679H3.70741Z" fill="white"/>
<path d="M4.54297 43.9679V41.8757H5.89483V42.1332H4.86484V42.777H5.79827V43.0345H4.86484V43.7426H5.92702V44.0001H4.54297V43.9679Z" fill="white"/>
<path d="M8.34116 41.9078H8.66304L9.17803 43.6138L9.66084 41.9078H9.98271L9.37116 44H8.98491L8.5021 42.3906L8.01929 44H7.63304L7.02148 41.9078H7.34336L7.82617 43.6138L8.34116 41.9078Z" fill="white"/>
<path d="M11.1102 44.0001C10.5309 44.0001 10.209 43.646 10.209 42.9379C10.209 42.2298 10.4987 41.8435 11.1102 41.8435C11.6896 41.8435 12.0115 42.1976 12.0115 42.9379C12.0115 43.646 11.6896 44.0001 11.1102 44.0001ZM11.1102 43.7747C11.239 43.7747 11.3355 43.7426 11.3999 43.7104C11.5608 43.6138 11.6252 43.4529 11.6574 43.2597C11.6896 43.0988 11.6896 42.7769 11.6574 42.616C11.6252 42.4229 11.5608 42.2619 11.3999 42.1654C11.3355 42.1332 11.2068 42.101 11.1102 42.101C10.9815 42.101 10.8849 42.1332 10.8205 42.1654C10.6596 42.2619 10.5952 42.4229 10.563 42.616C10.5309 42.7769 10.5309 43.0988 10.563 43.2597C10.5952 43.4529 10.6596 43.6138 10.8205 43.7104C10.8849 43.7426 11.0137 43.7747 11.1102 43.7747Z" fill="white"/>
<path d="M13.7182 43.5495C13.686 43.2598 13.5894 43.1632 13.2676 43.1632H12.7848V43.9679H12.4629V41.8757H13.3641C13.8469 41.8757 14.1044 42.101 14.1044 42.4873C14.1044 42.777 13.9757 42.9701 13.686 43.0345C13.9113 43.0667 14.0401 43.1954 14.0401 43.4851L14.0723 43.7104C14.0723 43.807 14.1044 43.8713 14.1044 43.9679H13.7826C13.7504 43.9357 13.7504 43.8713 13.7504 43.7748L13.7182 43.5495ZM12.7526 42.9379H13.2676C13.5894 42.9379 13.7182 42.8092 13.7182 42.5517C13.7182 42.2942 13.5573 42.1654 13.2676 42.1654H12.7526V42.9379Z" fill="white"/>
<path d="M14.4883 43.9679V41.8757H14.8102V43.7104H15.8723V43.9679H14.4883Z" fill="white"/>
<path d="M16.1953 43.9679V41.8757H17C17.3219 41.8757 17.515 41.9723 17.6759 42.1332C17.8047 42.2942 17.8691 42.5517 17.8691 42.9057C17.8691 43.2598 17.8047 43.5173 17.6759 43.6782C17.5472 43.8391 17.3219 43.9357 17 43.9357H16.1953V43.9679ZM16.5172 43.7426H17C17.1931 43.7426 17.3541 43.6782 17.4184 43.5816C17.515 43.4529 17.5794 43.2276 17.5794 42.9379C17.5794 42.6482 17.515 42.4229 17.4184 42.2942C17.3219 42.1976 17.1931 42.1332 17 42.1332H16.5172V43.7426Z" fill="white"/>
<path d="M19.4466 41.9078H19.7685L20.2835 43.6138L20.7663 41.9078H21.0882L20.4766 44H20.0904L19.6076 42.3906L19.1248 44H18.7385L18.127 41.9078H18.4488L18.9316 43.6138L19.4466 41.9078Z" fill="white"/>
<path d="M21.732 41.9078V44H21.4102V41.9078H21.732Z" fill="white"/>
<path d="M22.2461 43.9679V41.8757H23.0508C23.3726 41.8757 23.5658 41.9723 23.7267 42.1332C23.8555 42.2942 23.9198 42.5517 23.9198 42.9057C23.9198 43.2598 23.8555 43.5173 23.7267 43.6782C23.598 43.8391 23.3726 43.9357 23.0508 43.9357H22.2461V43.9679ZM22.568 43.7426H23.0186C23.2117 43.7426 23.3727 43.6782 23.437 43.5816C23.5336 43.4529 23.598 43.2276 23.598 42.9379C23.598 42.6482 23.5336 42.4229 23.437 42.2942C23.3405 42.1976 23.2117 42.1332 23.0186 42.1332H22.5358V43.7426H22.568Z" fill="white"/>
<path d="M24.3711 43.9679V41.8757H25.723V42.1332H24.693V42.777H25.6264V43.0345H24.693V43.7426H25.7551V44.0001H24.3711V43.9679Z" fill="white"/>
<path d="M27.783 42.8735L28.3946 41.8757H28.7165L27.944 43.131V43.9679H27.6221V43.131L26.8496 41.8757H27.1715L27.783 42.8735Z" fill="white"/>
<path d="M30.1963 43.9679L30.0354 43.4851H29.102L28.941 43.9679H28.6191L29.3916 41.8757H29.7457L30.5182 43.9679H30.1963ZM29.5526 42.1654L29.1663 43.2598H29.9388L29.5526 42.1654Z" fill="white"/>
<path d="M31.0348 43.2598C31.067 43.3563 31.0669 43.4529 31.1313 43.5173C31.1957 43.6782 31.3566 43.7748 31.6141 43.7748C31.9682 43.7748 32.1291 43.5817 32.1613 43.292H32.4832C32.451 43.7426 32.1291 44.0323 31.6141 44.0323C31.0348 44.0323 30.7129 43.6782 30.7129 42.9701C30.7129 42.262 31.0026 41.8757 31.6141 41.8757C32.1291 41.8757 32.451 42.1654 32.4832 42.616H32.1613C32.1291 42.3263 31.936 42.1332 31.6141 42.1332C31.2601 42.1332 31.0991 42.3585 31.0669 42.6482C31.0026 42.777 31.0026 43.0988 31.0348 43.2598Z" fill="white"/>
<path d="M34.1547 43.9679V43.0345H33.1891V43.9679H32.8672V41.8757H33.1891V42.777H34.1547V41.8757H34.4766V43.9679H34.1547Z" fill="white"/>
<path d="M34.8008 42.1332V41.8757H36.4423V42.1332H35.7986V43.9679H35.4767V42.1332H34.8008Z" fill="white"/>
<path d="M37.0523 41.9078V44H36.7305V41.9078H37.0523Z" fill="white"/>
<path d="M39.1767 43.9679H38.8548L37.857 42.3907V43.9679H37.5352V41.8757H37.857L38.8548 43.4529V41.8757H39.1767V43.9679Z" fill="white"/>
<path d="M39.627 42.9379C39.627 42.2298 39.9166 41.8435 40.5282 41.8435C41.0432 41.8435 41.3651 42.1332 41.3973 42.5838H41.0754C41.0432 42.2941 40.8501 42.101 40.5282 42.101C40.3029 42.101 40.142 42.1976 40.0454 42.3585C39.981 42.5194 39.9488 42.6804 39.9488 42.9379C39.9488 43.5172 40.142 43.7747 40.5282 43.7747C40.8823 43.7747 41.0754 43.5816 41.0754 43.2276V43.131H40.5282V42.8735H41.3651V43.9679H41.1398L41.0754 43.7104C40.9788 43.9035 40.7535 44.0322 40.4638 44.0322C39.9166 44.0001 39.627 43.646 39.627 42.9379Z" fill="white"/>
<path d="M44.167 43.9679L44.0061 43.4851H43.0727L42.9117 43.9679H42.5898L43.3623 41.8757H43.7164L44.4889 43.9679H44.167ZM43.5233 42.1654L43.137 43.2598H43.9095L43.5233 42.1654Z" fill="white"/>
<path d="M46.0325 43.8391C45.9037 43.9679 45.7106 44.0001 45.4531 44.0001C45.1956 44.0001 45.0025 43.9357 44.8737 43.8391C44.745 43.7104 44.6484 43.5816 44.6484 43.3885V43.3563H44.9703V43.4207C44.9703 43.646 45.1634 43.7747 45.4531 43.7747C45.7428 43.7747 45.9359 43.6138 45.9359 43.4207C45.9359 43.2276 45.8072 43.131 45.5497 43.0666L45.26 43.0023C44.8738 42.9379 44.6806 42.7448 44.6806 42.4229C44.6806 42.2619 44.745 42.1332 44.8737 42.0044C45.0025 41.9079 45.1956 41.8435 45.4209 41.8435C45.6462 41.8435 45.8394 41.9079 45.9681 42.0044C46.0969 42.101 46.1612 42.2619 46.1612 42.4229V42.4551H45.8394V42.4229C45.8394 42.2298 45.6784 42.101 45.3887 42.101C45.0991 42.101 44.9381 42.2298 44.9381 42.4229C44.9381 42.616 45.0669 42.7126 45.2922 42.7448L45.5819 42.8091C45.9681 42.8735 46.1934 43.0666 46.1934 43.3885C46.2578 43.5816 46.1612 43.7426 46.0325 43.8391Z" fill="white"/>
<path d="M47.9329 43.8391C47.8041 43.9679 47.611 44.0001 47.3535 44.0001C47.096 44.0001 46.9029 43.9357 46.7741 43.8391C46.6454 43.7104 46.5488 43.5816 46.5488 43.3885V43.3563H46.8707V43.4207C46.8707 43.646 47.0638 43.7747 47.3535 43.7747C47.6432 43.7747 47.8363 43.6138 47.8363 43.4207C47.8363 43.2276 47.7076 43.131 47.4501 43.0666L47.1604 43.0023C46.7741 42.9379 46.581 42.7448 46.581 42.4229C46.581 42.2619 46.6454 42.1332 46.7741 42.0044C46.9029 41.9079 47.096 41.8435 47.3213 41.8435C47.5466 41.8435 47.7398 41.9079 47.8685 42.0044C47.9973 42.101 48.0616 42.2619 48.0616 42.4229V42.4551H47.7398V42.4229C47.7398 42.2298 47.5788 42.101 47.2891 42.101C46.9994 42.101 46.8385 42.2298 46.8385 42.4229C46.8385 42.616 46.9673 42.7126 47.1926 42.7448L47.4823 42.8091C47.8685 42.8735 48.0938 43.0666 48.0938 43.3885C48.126 43.5816 48.0616 43.7426 47.9329 43.8391Z" fill="white"/>
<path d="M49.3798 44.0001C48.8004 44.0001 48.4785 43.646 48.4785 42.9379C48.4785 42.2298 48.7682 41.8435 49.3798 41.8435C49.9591 41.8435 50.281 42.1976 50.281 42.9379C50.2488 43.646 49.9591 44.0001 49.3798 44.0001ZM49.3798 43.7747C49.5085 43.7747 49.6051 43.7426 49.6694 43.7104C49.8304 43.6138 49.8947 43.4529 49.9269 43.2597C49.9591 43.0988 49.9591 42.7769 49.9269 42.616C49.8947 42.4229 49.8304 42.2619 49.6694 42.1654C49.6051 42.1332 49.4763 42.101 49.3798 42.101C49.251 42.101 49.1544 42.1332 49.0901 42.1654C48.9291 42.2619 48.8648 42.4229 48.8326 42.616C48.8004 42.7769 48.8004 43.0988 48.8326 43.2597C48.8648 43.4529 48.9291 43.6138 49.0901 43.7104C49.1544 43.7426 49.251 43.7747 49.3798 43.7747Z" fill="white"/>
<path d="M50.9586 43.2598C50.9908 43.3563 50.9908 43.4529 51.0552 43.5173C51.1195 43.6782 51.2805 43.7748 51.538 43.7748C51.892 43.7748 52.053 43.5817 52.0851 43.292H52.407C52.3748 43.7426 52.053 44.0323 51.538 44.0323C50.9586 44.0323 50.6367 43.6782 50.6367 42.9701C50.6367 42.262 50.9264 41.8757 51.538 41.8757C52.053 41.8757 52.3748 42.1654 52.407 42.616H52.0851C52.053 42.3263 51.8598 42.1332 51.538 42.1332C51.1839 42.1332 51.023 42.3585 50.9908 42.6482C50.9264 42.777 50.9264 43.0988 50.9586 43.2598Z" fill="white"/>
<path d="M53.1129 41.9078V44H52.791V41.9078H53.1129Z" fill="white"/>
<path d="M55.0127 43.9679L54.8518 43.4851H53.9184L53.7574 43.9679H53.4355L54.208 41.8757H54.5621L55.3346 43.9679H55.0127ZM54.4012 42.1654L54.0149 43.2598H54.7874L54.4012 42.1654Z" fill="white"/>
<path d="M55.2715 42.1332V41.8757H56.913V42.1332H56.2693V43.9679H55.9474V42.1332H55.2715Z" fill="white"/>
<path d="M57.5563 41.9078V44H57.2344V41.9078H57.5563Z" fill="white"/>
<path d="M58.8758 44.0001C58.2965 44.0001 57.9746 43.646 57.9746 42.9379C57.9746 42.2298 58.2643 41.8435 58.8758 41.8435C59.4552 41.8435 59.7771 42.1976 59.7771 42.9379C59.7771 43.646 59.4552 44.0001 58.8758 44.0001ZM58.8758 43.7747C59.0046 43.7747 59.1012 43.7426 59.1655 43.7104C59.3265 43.6138 59.3908 43.4529 59.423 43.2597C59.4552 43.0988 59.4552 42.7769 59.423 42.616C59.3908 42.4229 59.3265 42.2619 59.1655 42.1654C59.1012 42.1332 58.9724 42.101 58.8758 42.101C58.7471 42.101 58.6505 42.1332 58.5862 42.1654C58.4252 42.2619 58.3609 42.4229 58.3287 42.616C58.2965 42.7769 58.2965 43.0988 58.3287 43.2597C58.3609 43.4529 58.4252 43.6138 58.5862 43.7104C58.6505 43.7426 58.7471 43.7747 58.8758 43.7747Z" fill="white"/>
<path d="M61.8369 43.9679H61.515L60.5172 42.3907V43.9679H60.1953V41.8757H60.5172L61.515 43.4529V41.8757H61.8369V43.9679Z" fill="white"/>
</svg>
